<?xml version="1.0" encoding="UTF-8" standalone="no"?>
<!-- Created with Inkscape (http://www.inkscape.org/) -->

<svg
   xmlns:dc="http://purl.org/dc/elements/1.1/"
   xmlns:cc="http://creativecommons.org/ns#"
   xmlns:rdf="http://www.w3.org/1999/02/22-rdf-syntax-ns#"
   xmlns:svg="http://www.w3.org/2000/svg"
   xmlns="http://www.w3.org/2000/svg"
   xmlns:sodipodi="http://sodipodi.sourceforge.net/DTD/sodipodi-0.dtd"
   xmlns:inkscape="http://www.inkscape.org/namespaces/inkscape"
   width="400.13419"
   height="363.48459"
   id="svg3085"
   version="1.1"
   inkscape:version="0.48.2 r9819"
   sodipodi:docname="Documento nuevo 3">
  <defs
     id="defs3087" />
  <sodipodi:namedview
     id="base"
     pagecolor="#ffffff"
     bordercolor="#666666"
     borderopacity="1.0"
     inkscape:pageopacity="0.0"
     inkscape:pageshadow="2"
     inkscape:zoom="1.4"
     inkscape:cx="296.04086"
     inkscape:cy="191.48286"
     inkscape:document-units="px"
     inkscape:current-layer="layer1"
     showgrid="false"
     fit-margin-top="0"
     fit-margin-left="0"
     fit-margin-right="0"
     fit-margin-bottom="0"
     inkscape:window-width="1440"
     inkscape:window-height="853"
     inkscape:window-x="-4"
     inkscape:window-y="-4"
     inkscape:window-maximized="1" />
  <metadata
     id="metadata3090">
    <rdf:RDF>
      <cc:Work
         rdf:about="">
        <dc:format>image/svg+xml</dc:format>
        <dc:type
           rdf:resource="http://purl.org/dc/dcmitype/StillImage" />
        <dc:title></dc:title>
      </cc:Work>
    </rdf:RDF>
  </metadata>
  <g
     inkscape:label="Capa 1"
     inkscape:groupmode="layer"
     id="layer1"
     transform="translate(-156.55881,-301.23461)">
    <g
       id="g3127">
      <path
         inkscape:transform-center-y="-14.921415"
         transform="matrix(3.4180155,0,0,3.4180155,-2586.8729,-461.62367)"
         d="m 809.48343,319.44186 c -2.58446,-4.47643 46.52037,-89.52849 51.6893,-89.52849 5.16893,0 54.27376,85.05207 51.6893,89.52849 -2.58447,4.47643 -100.79414,4.47642 -103.3786,0 z"
         inkscape:randomized="0"
         inkscape:rounded="0.05"
         inkscape:flatsided="true"
         sodipodi:arg2="3.6651914"
         sodipodi:arg1="2.6179939"
         sodipodi:r2="29.842831"
         sodipodi:r1="59.685661"
         sodipodi:cy="289.59903"
         sodipodi:cx="861.17273"
         sodipodi:sides="3"
         id="path3866"
         style="fill:#ffffff;fill-opacity:0;stroke:#aa0000;stroke-width:8"
         sodipodi:type="star" />
      <g
         id="text3826"
         style="font-size:238.78561401px;font-style:normal;font-variant:normal;font-weight:normal;font-stretch:normal;line-height:125%;letter-spacing:0px;word-spacing:0px;fill:#aa0000;fill-opacity:1;stroke:none;font-family:Albert;-inkscape-font-specification:Albert"
         transform="scale(0.84488837,1.1835883)">
        <path
           id="path3125"
           style=""
           d="m 461.6165,366.48638 c -2.06478,6.84521 -4.29222,18.94431 -6.68233,36.29733 -2.39026,17.35325 -3.58535,30.72518 -3.58528,40.11581 -7e-5,4.13918 0.5574,7.68073 1.67241,10.62468 1.11486,2.94407 2.30873,5.92937 3.58163,8.95592 -7e-5,1.90928 -0.0778,2.94406 -0.23319,3.10433 -1.27775,0.79678 -5.49701,1.19514 -12.65779,1.19509 -6.36904,5e-5 -12.02022,-0.5975 -16.95357,-1.79264 -4.93345,-1.19504 -9.31182,-2.98525 -13.13511,-5.37064 -8.43855,6e-5 -14.72737,-9.07487 -18.86645,-27.22482 -1.27284,-6.04825 -2.4655,-15.12076 -3.578,-27.21754 -10e-6,-6.36886 0.3182,-11.34477 0.95462,-14.92774 0.6364,-3.58273 1.19265,-6.64697 1.66876,-9.19275 -1e-5,-1.59333 -0.87447,-3.50256 -2.62338,-5.72771 -1.90924,-0.95691 -3.34238,-1.83379 -4.29942,-2.63066 -2.86629,-2.70582 -4.29943,-6.20851 -4.29942,-10.50809 -0.4761,-3.02158 0.002,-5.24902 1.43557,-6.68232 2.38532,-2.54549 7.39888,-3.81831 15.04069,-3.81847 2.06953,-1.27266 6.76732,-2.46775 14.09337,-3.58528 1.11247,-0.16015 2.7035,-0.3982 4.77309,-0.71415 9.7113,1.7e-4 19.02428,1.51104 27.93896,4.53262 10.9841,3.82349 16.23571,8.67916 15.75484,14.56703 z m -1.42828,133.00522 c -9e-5,5.25162 -0.47861,8.51626 -1.43557,9.79394 -1.749,0.79187 -3.18214,1.50601 -4.29943,2.14242 -3.02181,1.75378 -6.04598,3.98365 -9.07251,6.68961 l -18.85917,2.62338 c -13.3744,0 -23.08574,-2.86385 -29.13406,-8.59156 -4.29944,-4.1391 -6.44914,-9.15509 -6.44913,-15.04798 -0.16033,-1.58858 -0.24049,-2.70109 -0.24048,-3.33752 -1e-5,-5.57222 1.99181,-9.71132 5.97547,-12.41732 4.61518,-3.18688 12.89095,-5.57464 24.82735,-7.16328 2.55046,-0.32059 4.22408,-0.48091 5.02085,-0.48095 3.81842,4e-5 7.55916,1.03482 11.22223,3.10433 2.38527,1.27286 6.04584,4.05898 10.98175,8.35837 2.70589,1.74895 5.41185,3.42014 8.11789,5.01357 2.22979,2.39021 3.34472,5.49453 3.34481,9.31299 z" />
      </g>
    </g>
  </g>
</svg>
